<mxfile host="app.diagrams.net" agent="Mozilla/5.0 (X11; Linux x86_64; rv:130.0) Gecko/20100101 Firefox/130.0" version="24.7.14">
  <diagram name="Page-1" id="tuoQRyF--M8PMrgClNcr">
    <mxGraphModel dx="1434" dy="794" grid="0" gridSize="10" guides="0" tooltips="1" connect="1" arrows="1" fold="1" page="1" pageScale="1" pageWidth="850" pageHeight="1100" math="0" shadow="0">
      <root>
        <mxCell id="0" />
        <mxCell id="1" parent="0" />
        <mxCell id="aRLkHNR84MG8htMFNlhs-1" value="&lt;font style=&quot;font-size: 19px;&quot;&gt;Vyaguta Platform&lt;br&gt;&lt;/font&gt;" style="rounded=0;whiteSpace=wrap;html=1;" parent="1" vertex="1">
          <mxGeometry x="30" y="70" width="120" height="60" as="geometry" />
        </mxCell>
        <mxCell id="aRLkHNR84MG8htMFNlhs-2" value="" style="whiteSpace=wrap;html=1;aspect=fixed;" parent="1" vertex="1">
          <mxGeometry x="240" y="20" width="480" height="480" as="geometry" />
        </mxCell>
        <mxCell id="aRLkHNR84MG8htMFNlhs-3" value="&lt;div style=&quot;font-size: 13px;&quot;&gt;&lt;font style=&quot;font-size: 24px;&quot;&gt;Ingestion Service&lt;/font&gt;&lt;font style=&quot;font-size: 13px;&quot;&gt; &lt;br&gt;&lt;/font&gt;&lt;/div&gt;&lt;div style=&quot;font-size: 13px;&quot;&gt;&lt;font style=&quot;font-size: 13px;&quot;&gt;API Call and load the data to raw&lt;br&gt;&lt;/font&gt;&lt;/div&gt;&lt;div style=&quot;font-size: 11px;&quot;&gt;&lt;font style=&quot;font-size: 11px;&quot;&gt;Listen the Beat of the log&lt;font style=&quot;font-size: 11px;&quot;&gt;&lt;br&gt;&lt;/font&gt;&lt;/font&gt;&lt;/div&gt;" style="rounded=0;whiteSpace=wrap;html=1;" parent="1" vertex="1">
          <mxGeometry x="310" y="80" width="220" height="60" as="geometry" />
        </mxCell>
        <mxCell id="aRLkHNR84MG8htMFNlhs-4" value="&lt;font style=&quot;font-size: 16px;&quot;&gt;Fetch Leave Data &lt;br&gt;&lt;/font&gt;" style="endArrow=open;endSize=12;dashed=1;html=1;rounded=0;entryX=1.008;entryY=0.617;entryDx=0;entryDy=0;exitX=0;exitY=0.5;exitDx=0;exitDy=0;entryPerimeter=0;" parent="1" source="aRLkHNR84MG8htMFNlhs-3" target="aRLkHNR84MG8htMFNlhs-1" edge="1">
          <mxGeometry x="-0.0714" y="-20" width="160" relative="1" as="geometry">
            <mxPoint x="380" y="210" as="sourcePoint" />
            <mxPoint x="160" y="210" as="targetPoint" />
            <mxPoint as="offset" />
            <Array as="points">
              <mxPoint x="160" y="110" />
            </Array>
          </mxGeometry>
        </mxCell>
        <mxCell id="aRLkHNR84MG8htMFNlhs-5" value="&lt;div&gt;&lt;font style=&quot;font-size: 23px;&quot;&gt;Processing Service&lt;br&gt;&lt;/font&gt;&lt;/div&gt;&lt;div style=&quot;font-size: 11px;&quot;&gt;ETL process&lt;font style=&quot;font-size: 11px;&quot;&gt;&lt;font style=&quot;font-size: 11px;&quot;&gt;&lt;br&gt;&lt;/font&gt;&lt;/font&gt;&lt;/div&gt;" style="rounded=0;whiteSpace=wrap;html=1;" parent="1" vertex="1">
          <mxGeometry x="294" y="284" width="270" height="60" as="geometry" />
        </mxCell>
        <mxCell id="aRLkHNR84MG8htMFNlhs-6" value="&lt;div&gt;&lt;font style=&quot;font-size: 23px;&quot;&gt;Database&lt;br&gt;&lt;/font&gt;&lt;/div&gt;&lt;div style=&quot;font-size: 11px;&quot;&gt;Stores Data in Mysql&lt;br&gt;&lt;/div&gt;" style="rounded=0;whiteSpace=wrap;html=1;" parent="1" vertex="1">
          <mxGeometry x="318" y="168" width="220" height="60" as="geometry" />
        </mxCell>
        <mxCell id="aRLkHNR84MG8htMFNlhs-11" value="&lt;font style=&quot;font-size: 14px;&quot;&gt;Delivers&amp;nbsp; Data&lt;br&gt;&lt;/font&gt;" style="endArrow=open;endSize=12;dashed=1;html=1;rounded=0;exitX=0.5;exitY=1;exitDx=0;exitDy=0;entryX=0.468;entryY=0;entryDx=0;entryDy=0;entryPerimeter=0;" parent="1" source="aRLkHNR84MG8htMFNlhs-3" target="aRLkHNR84MG8htMFNlhs-6" edge="1">
          <mxGeometry x="0.6022" y="129" width="160" relative="1" as="geometry">
            <mxPoint x="380" y="210" as="sourcePoint" />
            <mxPoint x="160" y="210" as="targetPoint" />
            <mxPoint as="offset" />
          </mxGeometry>
        </mxCell>
        <mxCell id="aRLkHNR84MG8htMFNlhs-13" value="&lt;div style=&quot;&quot;&gt;&lt;font style=&quot;font-size: 22px;&quot;&gt;Visualization Service&lt;/font&gt;&lt;/div&gt;&lt;div style=&quot;&quot;&gt;&lt;font style=&quot;font-size: 12px;&quot;&gt;Matplotlib&lt;font style=&quot;font-size: 12px;&quot;&gt;&lt;font style=&quot;font-size: 12px;&quot;&gt;&lt;br&gt;&lt;/font&gt;&lt;/font&gt;&lt;/font&gt;&lt;/div&gt;" style="rounded=0;whiteSpace=wrap;html=1;" parent="1" vertex="1">
          <mxGeometry x="329" y="412" width="220" height="60" as="geometry" />
        </mxCell>
        <mxCell id="aRLkHNR84MG8htMFNlhs-17" value="&lt;div&gt;&lt;font style=&quot;font-size: 20px;&quot;&gt;Users&lt;/font&gt;&lt;/div&gt;&lt;div style=&quot;font-size: 14px;&quot;&gt;&lt;font style=&quot;font-size: 11px;&quot;&gt;admin of paltform&lt;/font&gt;&lt;/div&gt;" style="rounded=0;whiteSpace=wrap;html=1;" parent="1" vertex="1">
          <mxGeometry x="30" y="410" width="120" height="60" as="geometry" />
        </mxCell>
        <mxCell id="aRLkHNR84MG8htMFNlhs-18" value="" style="endArrow=open;endSize=12;dashed=1;html=1;rounded=0;exitX=1;exitY=0.5;exitDx=0;exitDy=0;entryX=0;entryY=0.5;entryDx=0;entryDy=0;" parent="1" source="aRLkHNR84MG8htMFNlhs-17" target="aRLkHNR84MG8htMFNlhs-13" edge="1">
          <mxGeometry y="135" width="160" relative="1" as="geometry">
            <mxPoint x="425" y="370" as="sourcePoint" />
            <mxPoint x="422" y="423" as="targetPoint" />
            <mxPoint y="-1" as="offset" />
          </mxGeometry>
        </mxCell>
        <mxCell id="aRLkHNR84MG8htMFNlhs-19" value="&lt;div&gt;Views&lt;/div&gt;&lt;div&gt;&lt;br&gt;&lt;/div&gt;" style="text;html=1;align=center;verticalAlign=middle;resizable=0;points=[];autosize=1;strokeColor=none;fillColor=none;" parent="1" vertex="1">
          <mxGeometry x="170" y="420" width="60" height="40" as="geometry" />
        </mxCell>
        <mxCell id="aRLkHNR84MG8htMFNlhs-20" value="Retrieve Data" style="text;html=1;align=center;verticalAlign=middle;resizable=0;points=[];autosize=1;strokeColor=none;fillColor=none;" parent="1" vertex="1">
          <mxGeometry x="546" y="404" width="100" height="30" as="geometry" />
        </mxCell>
        <mxCell id="Uoczkvc4O0ja2kyIg5aQ-1" value="" style="endArrow=classic;startArrow=classic;html=1;rounded=0;entryX=0.5;entryY=1;entryDx=0;entryDy=0;exitX=0.5;exitY=0;exitDx=0;exitDy=0;dashed=1;dashPattern=8 8;" parent="1" source="aRLkHNR84MG8htMFNlhs-5" target="aRLkHNR84MG8htMFNlhs-6" edge="1">
          <mxGeometry width="50" height="50" relative="1" as="geometry">
            <mxPoint x="399" y="417" as="sourcePoint" />
            <mxPoint x="449" y="367" as="targetPoint" />
          </mxGeometry>
        </mxCell>
        <mxCell id="Uoczkvc4O0ja2kyIg5aQ-2" value="" style="endArrow=classic;html=1;rounded=0;entryX=1;entryY=0.5;entryDx=0;entryDy=0;" parent="1" source="aRLkHNR84MG8htMFNlhs-13" target="aRLkHNR84MG8htMFNlhs-6" edge="1">
          <mxGeometry width="50" height="50" relative="1" as="geometry">
            <mxPoint x="444" y="407.99" as="sourcePoint" />
            <mxPoint x="540" y="192" as="targetPoint" />
            <Array as="points">
              <mxPoint x="639" y="444" />
              <mxPoint x="643" y="196" />
            </Array>
          </mxGeometry>
        </mxCell>
        <mxCell id="Uoczkvc4O0ja2kyIg5aQ-3" value="Conduct ETL service" style="text;html=1;align=center;verticalAlign=middle;resizable=0;points=[];autosize=1;strokeColor=none;fillColor=none;" parent="1" vertex="1">
          <mxGeometry x="440" y="250" width="130" height="26" as="geometry" />
        </mxCell>
      </root>
    </mxGraphModel>
  </diagram>
</mxfile>
